<svg id="visual" viewBox="0 0 2000 600" width="2000" height="600" xmlns="http://www.w3.org/2000/svg" xmlns:xlink="http://www.w3.org/1999/xlink" version="1.1"><rect x="0" y="0" width="2000" height="600" fill="#555A36"></rect><path d="M0 369L286 438L571 389L857 372L1143 380L1429 354L1714 399L2000 417L2000 601L1714 601L1429 601L1143 601L857 601L571 601L286 601L0 601Z" fill="#636940"></path><path d="M0 440L286 409L571 452L857 462L1143 480L1429 414L1714 452L2000 446L2000 601L1714 601L1429 601L1143 601L857 601L571 601L286 601L0 601Z" fill="#5c613b"></path><path d="M0 472L286 437L571 487L857 440L1143 499L1429 445L1714 490L2000 496L2000 601L1714 601L1429 601L1143 601L857 601L571 601L286 601L0 601Z" fill="#555936"></path><path d="M0 481L286 541L571 530L857 540L1143 501L1429 528L1714 492L2000 502L2000 601L1714 601L1429 601L1143 601L857 601L571 601L286 601L0 601Z" fill="#4e5131"></path><path d="M0 540L286 561L571 546L857 566L1143 555L1429 571L1714 547L2000 549L2000 601L1714 601L1429 601L1143 601L857 601L571 601L286 601L0 601Z" fill="#474a2c"></path></svg>